<?xml version="1.0" encoding="UTF-8"?>
<svg id="Layer_1" data-name="Layer 1" xmlns="http://www.w3.org/2000/svg" xmlns:xlink="http://www.w3.org/1999/xlink" viewBox="0 0 511.92 511.92">
  <defs>
    <filter id="drop-shadow-1" x="0" y="0" width="511.92" height="511.92" filterUnits="userSpaceOnUse">
      <feOffset dx="7" dy="7"/>
      <feGaussianBlur result="blur" stdDeviation="5"/>
      <feFlood flood-color="#000" flood-opacity=".75"/>
      <feComposite in2="blur" operator="in"/>
      <feComposite in="SourceGraphic"/>
    </filter>
  </defs>
  <g style="filter: url(#drop-shadow-1);">
    <rect width="511.92" height="511.92" style="fill: #add8e6;"/>
  </g>
  <g>
    <path d="M240.75,101.08h30.35v23.51h-30.35v-23.51Z" style="fill: #0c234b;"/>
    <path d="M223.49,75.96h65.01v31.31h-65.01v-31.31Z" style="fill: #0c234b;"/>
    <path d="M367.52,145.01l17.81,17.81-13.79,13.79-17.81-17.81s13.79-13.79,13.79-13.79Z" style="fill: #0c234b;"/>
    <path d="M372.15,120.16l38.15,38.15-18.38,18.38-38.15-38.15,18.38-18.38Z" style="fill: #0c234b;"/>
    <path d="M255.96,124.51c-85.97,0-155.72,69.74-155.72,155.72s69.74,155.72,155.72,155.72,155.72-69.74,155.72-155.72-69.74-155.72-155.72-155.72ZM255.96,405.53c-69.16,0-125.29-56.13-125.29-125.29s56.13-125.29,125.29-125.29,125.29,56.13,125.29,125.29-56.13,125.29-125.29,125.29Z" style="fill: #0c234b;"/>
    <path d="M255.96,183.05v97.19h97.19c0-53.73-43.54-97.19-97.19-97.19Z" style="fill: #0c234b;"/>
  </g>
</svg>