<?xml version="1.0" encoding="UTF-8"?>
<svg id="Layer_1" xmlns="http://www.w3.org/2000/svg" version="1.1" viewBox="0 0 1024 1024">
  <!-- Generator: Adobe Illustrator 30.3.0, SVG Export Plug-In . SVG Version: 2.1.3 Build 182)  -->
  <defs>
    <style>
      .st0 {
        fill: #0c234b;
      }

      .st1 {
        fill: #add8e6;
      }
    </style>
  </defs>
  <rect class="st1" width="1024" height="1024"/>
  <g>
    <path class="st0" d="M481.7,202.2h60.8v47h-60.8v-47h0Z"/>
    <path class="st0" d="M447.1,152h130v62.6h-130v-62.6Z"/>
    <path class="st0" d="M735.1,290.1l35.6,35.6-27.6,27.6-35.6-35.6,27.6-27.6Z"/>
    <path class="st0" d="M744.3,240.4l76.2,76.2-36.8,36.8-76.2-76.2,36.8-36.8h0Z"/>
    <path class="st0" d="M512.1,249c-172,0-311.5,139.4-311.5,311.5s139.4,311.5,311.5,311.5,311.5-139.4,311.5-311.5-139.4-311.5-311.5-311.5h0ZM512.1,811.2c-138.4,0-250.6-112.2-250.6-250.6s112.2-250.6,250.6-250.6,250.6,112.2,250.6,250.6-112.2,250.6-250.6,250.6h0Z"/>
    <path class="st0" d="M512.1,366.1v194.4h194.4c0-107.4-87-194.4-194.4-194.4h0Z"/>
  </g>
</svg>